PathFileType	4	(X/Y/Z)	C:/Users/opensim2020/Desktop/walking_exp_matlab/subject03_walking06_straight_02.trc																																																																																																																																		
DataRate	CameraRate	NumFrames	NumMarkers	Units	OrigDataRate	OrigDataStartFrame	OrigNumFrames																																																																																																																														
100	100	8	44	mm	100	1429	238																																																																																																																														
Frame#	Time	LFHD			RFHD			LBHD			RBHD			C7			T10			CLAV			STRN			RBAK			LSHO			LUPA			LELB			LFRM			LWRA			LWRB			LFIN			RSHO			RUPA			RELB			RFRM			RWRA			RWRB			RFIN			LASI			RASI			LPSI			RPSI			LTHI			LKNE			LTIB			LANK			LHEE			LTOE			RTHI			RKNE			RTIB			RANK			RHEE			RTOE			*39			*40			*41			*42			*43		
		X1	Y1	Z1	X2	Y2	Z2	X3	Y3	Z3	X4	Y4	Z4	X5	Y5	Z5	X6	Y6	Z6	X7	Y7	Z7	X8	Y8	Z8	X9	Y9	Z9	X10	Y10	Z10	X11	Y11	Z11	X12	Y12	Z12	X13	Y13	Z13	X14	Y14	Z14	X15	Y15	Z15	X16	Y16	Z16	X17	Y17	Z17	X18	Y18	Z18	X19	Y19	Z19	X20	Y20	Z20	X21	Y21	Z21	X22	Y22	Z22	X23	Y23	Z23	X24	Y24	Z24	X25	Y25	Z25	X26	Y26	Z26	X27	Y27	Z27	X28	Y28	Z28	X29	Y29	Z29	X30	Y30	Z30	X31	Y31	Z31	X32	Y32	Z32	X33	Y33	Z33	X34	Y34	Z34	X35	Y35	Z35	X36	Y36	Z36	X37	Y37	Z37	X38	Y38	Z38	X39	Y39	Z39	X40	Y40	Z40	X41	Y41	Z41	X42	Y42	Z42	X43	Y43	Z43	X44	Y44	Z44
																																																																																																																																					
149	1.48	362.11429	1608.29504	968.42249	352.19278	1609.96838	1100.90198	229.99486	1579.3844	962.21204	224.9101	1580.25928	1093.23376	183.69443	1414.30396	1016.19421	145.73599	1098.86292	1014.88062	303.63531	1334.99084	1021.05212	346.91016	1171.31482	1012.85333	124.6227	1235.2937	1105.42175	267.86209	1377.4248	865.125	273.14716	1182.01782	795.61597	289.29297	1058.68604	788.3302	332.77258	936.06866	797.01575	367.65274	824.56598	835.79785	347.08987	822.53607	783.38715	371.34265	741.94543	802.27844	249.20435	1357.0802	1178.52563	229.51581	1135.63611	1249.66479	236.76762	1022.60126	1262.27588	252.46904	886.60162	1260.86438	284.35358	792.26898	1223.22705	251.20447	785.6554	1265.90051	269.12167	712.65497	1249.31958	308.86923	928.3692	899.44476	318.84061	942.97443	1137.37964	149.75482	950.98334	954.93372	156.37328	968.9812	1102.62122	251.92513	621.8606	850.64056	258.16098	441.67569	869.09998	97.21983	326.48718	873.18616	-62.69585	196.3007	915.62512	-110.91429	210.04305	955.10211	-11.72019	55.19751	942.98267	289.41803	649.88531	1184.18713	331.85623	472.27423	1148.65454	315.5415	283.66855	1154.67261	323.06488	67.06588	1106.97339	279.61758	34.7252	1055.573	465.98618	32.42158	1090.63977	NaN	NaN	NaN	NaN	NaN	NaN	NaN	NaN	NaN	NaN	NaN	NaN	NaN	NaN	NaN
150	1.49	372.22644	1609.01392	968.76593	362.69064	1610.74011	1101.34558	240.38528	1579.94934	962.97949	235.38354	1580.97693	1093.89746	194.00903	1415.19275	1016.80902	155.49754	1099.65845	1016.21661	313.52698	1335.65576	1021.6557	356.41428	1171.78955	1013.46002	134.52206	1236.11072	1107.03162	277.56326	1377.5741	865.54132	281.59775	1181.52283	796.90778	296.70734	1058.01306	789.84833	336.74667	933.96167	797.75842	368.29681	821.0672	835.73456	347.75504	820.21637	783.28015	367.81528	738.11597	802.07068	259.83563	1357.62048	1179.40845	241.49353	1136.38477	1251.77161	249.81908	1023.38678	1264.76282	267.07724	887.58722	1263.37805	299.80157	793.72296	1225.61353	267.08762	786.74823	1268.56421	286.09821	714.03802	1252.19922	317.8949	928.91473	899.99561	328.6795	943.0918	1138.1311	158.86948	950.90747	956.08533	166.15334	969.47058	1103.92224	266.3381	622.89948	851.37372	278.48279	443.01358	869.21722	117.68368	328.38876	874.27893	-43.36472	199.54384	917.29071	-92.04652	212.75114	957.19885	8.67647	59.02148	942.547	296.79996	650.37354	1185.66052	336.9173	472.31143	1149.35132	318.07202	283.77444	1154.83691	323.02582	67.15842	1106.77222	279.59918	34.76844	1055.51111	465.99582	32.34588	1090.57117	293.68167	1678.17468	1018.46594	NaN	NaN	NaN	NaN	NaN	NaN	NaN	NaN	NaN	NaN	NaN	NaN
151	1.5	382.36917	1609.64563	969.09174	373.12213	1611.47412	1101.69897	250.43925	1580.59973	963.64783	245.79207	1581.68811	1094.60364	204.14041	1416.01868	1017.69678	165.13786	1100.4823	1017.60291	323.32883	1336.27356	1022.19458	365.9165	1172.24402	1014.03748	144.30154	1237.11902	1108.40723	286.93027	1377.59546	865.87695	289.66281	1181.11267	798.11151	303.88858	1057.32764	791.34991	340.69241	932.17694	798.49567	369.21548	818.06323	835.40723	348.35342	818.18158	783.00439	364.4743	734.92163	801.53271	270.21341	1358.13232	1180.12549	253.64458	1137.27954	1253.61072	263.00229	1024.32727	1267.35144	281.8389	888.67877	1265.96118	315.28809	795.23328	1228.05872	283.10178	787.92773	1271.28137	303.29953	715.65839	1255.22766	326.99622	929.62439	900.52551	338.27637	943.36249	1138.93799	168.01303	951.09973	957.24152	175.54463	970.21021	1105.00732	281.03909	624.31683	852.15735	298.34442	444.87018	869.46539	137.81343	329.8497	875.14996	-23.24868	201.59795	919.07043	-72.3569	213.91296	959.34796	30.77313	62.0791	942.58893	303.70877	650.76855	1186.0105	341.76147	472.3942	1149.82983	320.44763	283.89029	1154.77856	323.11908	67.18217	1106.44421	279.62653	34.80742	1055.39575	466.05249	32.28214	1090.52429	NaN	NaN	NaN	NaN	NaN	NaN	NaN	NaN	NaN	NaN	NaN	NaN	NaN	NaN	NaN
152	1.51	392.49384	1610.22607	969.35284	383.48441	1612.09668	1101.86511	260.60587	1581.14172	964.11066	256.17584	1582.39453	1095.1532	214.02937	1417.01587	1018.60291	174.64429	1101.34277	1018.85309	333.06366	1336.84619	1022.68134	375.30551	1172.75879	1014.69934	153.88933	1238.23425	1109.76123	296.1546	1377.71667	866.16589	297.25665	1180.70325	799.32532	310.61758	1056.78333	792.84143	344.47327	930.68188	799.0907	369.94101	815.40643	834.9812	349.03772	816.59039	782.59625	361.51108	732.39905	800.6897	280.54178	1358.85999	1180.79651	265.89346	1138.23291	1255.2157	276.36404	1025.4165	1269.604	296.71625	889.93182	1268.50452	330.88483	796.86377	1230.59607	299.18503	789.28766	1274.16357	320.62436	717.52551	1258.5094	336.185	930.66583	901.18713	347.63144	943.82391	1139.77026	177.24055	951.60803	958.25403	184.90773	970.97931	1106.05554	296.25549	625.78656	853.0459	317.88309	446.90897	869.85901	158.31007	331.05963	876.3324	-2.2038	202.37123	920.82239	-51.91213	213.49281	961.43591	55.34337	64.38158	942.4292	310.75269	651.19458	1185.88416	346.62836	472.508	1149.97742	322.94928	283.95251	1154.57629	323.21512	67.28082	1106.1543	279.6662	34.87788	1055.2417	466.1077	32.24534	1090.42981	314.52478	1679.03516	1018.49231	NaN	NaN	NaN	NaN	NaN	NaN	NaN	NaN	NaN	NaN	NaN	NaN
153	1.52	402.62799	1610.70581	969.47522	393.92957	1612.62878	1102.03308	270.61255	1581.81177	964.51312	266.48911	1583.1189	1095.58594	223.87184	1417.94104	1019.31293	183.99951	1102.22717	1020.02625	342.65878	1337.41626	1023.07892	384.60147	1173.24939	1015.26654	163.44379	1239.30151	1110.8241	305.12946	1377.92737	866.41864	304.76028	1180.42908	800.29071	317.16687	1056.40283	794.04773	348.16724	929.49835	799.57391	370.49994	813.16931	834.46118	349.74283	815.43048	781.99878	358.99954	730.5708	799.71167	290.64908	1359.41516	1181.32874	277.98279	1139.31787	1256.72388	289.82047	1026.64319	1271.5686	311.61267	891.42017	1271.09204	346.48547	798.66925	1233.26343	315.31812	790.95435	1277.16736	338.03397	719.64252	1262.01428	345.42813	931.9292	902.15698	356.75821	944.39398	1140.63696	186.61388	952.43011	959.06152	194.10268	971.72491	1106.8562	311.74841	627.29938	854.01959	337.40909	449.02875	870.36487	178.82713	331.91104	877.60175	19.60285	201.82574	922.59155	-30.67197	211.59094	963.4361	80.74202	65.63168	942.96759	318.34573	651.21936	1185.54395	351.75821	472.52747	1149.91821	325.70306	284.03912	1154.30408	323.29379	67.40533	1105.87439	279.62201	34.97684	1055.08484	466.17819	32.22681	1090.3241	325.05469	1679.34363	1018.47046	NaN	NaN	NaN	NaN	NaN	NaN	NaN	NaN	NaN	NaN	NaN	NaN
154	1.53	412.67676	1611.04822	969.508	404.29828	1613.07104	1102.073	280.48746	1582.65491	965.16693	276.82404	1583.83301	1095.90588	233.5508	1418.61157	1019.90582	193.20358	1103.08875	1021.14386	352.1947	1338.00586	1023.46088	393.87723	1173.71301	1015.83862	172.79028	1240.3678	1111.90906	314.03015	1378.22729	866.66302	311.828	1180.27771	801.1568	323.23148	1056.20117	795.0636	351.61139	928.67291	799.90021	371.67068	811.61139	833.57703	350.39456	814.67847	781.42883	357.09238	729.33051	798.24286	300.44412	1360.48645	1181.85449	290.00699	1140.521	1258.15283	303.22137	1028.1543	1273.5282	326.50189	893.17719	1273.63	362.16757	800.75098	1236.03137	331.44177	792.87567	1280.28967	355.52045	722.01221	1265.74097	354.47305	933.17383	903.41815	365.72003	944.94257	1141.57886	195.93413	953.41425	959.72894	203.16852	972.37177	1107.55872	327.15823	628.68243	854.72009	356.68234	451.25882	871.19366	199.59746	332.22247	879.00366	42.20303	200.05528	924.34924	-8.66302	208.22844	965.28583	107.32465	65.94751	944.04755	326.01978	650.46271	1185.63245	357.14627	472.45245	1149.76672	328.77686	284.14725	1154.06848	323.45035	67.50089	1105.70435	279.63892	35.06155	1055.01062	466.20404	32.21921	1090.28027	335.48303	1679.95898	1018.44305	NaN	NaN	NaN	NaN	NaN	NaN	NaN	NaN	NaN	NaN	NaN	NaN
155	1.54	422.75128	1611.25854	969.40686	414.64996	1613.41418	1102.00989	290.59726	1583.22363	965.15375	287.04736	1584.55322	1096.04797	243.10417	1419.30347	1020.44861	202.36702	1103.87537	1022.0979	361.66876	1338.53857	1023.83099	403.00327	1174.26062	1016.46906	182.2533	1241.28308	1112.73608	322.74652	1378.64087	866.89319	318.53769	1180.20862	801.74854	328.74829	1056.10559	795.91248	354.97763	928.09155	799.99341	372.97455	810.29364	832.54022	351.00851	814.29474	780.71649	355.81458	728.62787	796.04456	310.19537	1361.58521	1182.38623	301.95087	1141.81763	1259.46033	316.62033	1029.72412	1275.18518	341.33597	895.12048	1276.17102	377.83191	802.97437	1238.97937	347.52814	794.94733	1283.45203	372.95032	724.63171	1269.63416	364.67773	935.00439	904.32758	374.68698	945.5506	1142.60742	205.36714	954.34229	960.14185	212.13538	972.94104	1108.07837	342.53445	630.26184	855.51727	375.46747	453.41891	872.12866	220.70532	331.92676	880.3703	65.59388	197.12886	926.00275	14.10979	203.48857	967.04169	135.10027	65.68273	945.27148	334.72299	650.84039	1185.09094	362.60693	472.23987	1149.63855	332.01602	284.17297	1153.92932	323.51709	67.67347	1105.59656	279.59116	35.19086	1054.95752	466.22903	32.22691	1090.23645	346.3158	1685.82214	1016.76294	NaN	NaN	NaN	NaN	NaN	NaN	NaN	NaN	NaN	NaN	NaN	NaN
156	1.55	432.82315	1611.34668	969.22815	424.92365	1613.6665	1101.82068	300.46484	1583.83191	965.32227	297.25974	1585.39856	1096.22034	252.5421	1420.07385	1021.09058	211.46234	1104.54016	1023.04895	371.02948	1339.02039	1024.16541	412.00684	1174.72803	1017.11841	191.64009	1242.23083	1113.6499	331.33218	1379.05713	867.1438	324.91708	1180.24084	802.22186	334.05057	1056.1394	796.42047	358.20551	927.70532	799.76794	374.34341	809.3313	831.23077	351.76727	814.28925	779.78833	355.29581	728.44122	793.85895	319.92078	1362.52942	1182.75525	313.71405	1143.16455	1260.69055	329.91995	1031.46375	1276.80115	356.10028	897.22687	1278.76599	393.4874	805.31787	1242.05554	363.46136	797.18762	1286.65442	390.31012	727.42084	1273.71716	374.28085	936.37689	905.55872	383.02075	946.16327	1143.44067	214.7206	955.31311	960.37817	221.00163	973.34351	1108.40417	357.80472	631.91095	856.43292	394.2077	455.63345	873.19135	242.02138	331.03275	881.66479	89.71104	193.12563	927.59912	37.6968	197.58469	968.64709	164.16454	64.80164	946.56372	341.86871	651.19861	1185.71118	368.12357	472.01843	1149.61401	335.28497	284.18338	1153.78589	323.72696	67.80237	1105.37683	279.63882	35.29208	1054.91772	466.26071	32.22009	1090.20776	356.7572	1681.41443	1018.15198	NaN	NaN	NaN	NaN	NaN	NaN	NaN	NaN	NaN	NaN	NaN	NaN
